<?xml version="1.0" encoding="UTF-8" standalone="no"?>
<!-- Generator: Adobe Illustrator 18.1.1, SVG Export Plug-In . SVG Version: 6.00 Build 0)  -->

<svg
   xmlns:dc="http://purl.org/dc/elements/1.1/"
   xmlns:cc="http://creativecommons.org/ns#"
   xmlns:rdf="http://www.w3.org/1999/02/22-rdf-syntax-ns#"
   xmlns:svg="http://www.w3.org/2000/svg"
   xmlns="http://www.w3.org/2000/svg"
   xmlns:sodipodi="http://sodipodi.sourceforge.net/DTD/sodipodi-0.dtd"
   xmlns:inkscape="http://www.inkscape.org/namespaces/inkscape"
   version="1.1"
   id="Capa_1"
   x="0px"
   y="0px"
   viewBox="0 0 612.074 612.074"
   style="enable-background:new 0 0 612.074 612.074;"
   xml:space="preserve"
   inkscape:version="0.48.4 r9939"
   width="100%"
   height="100%"
   sodipodi:docname="pause.svg"><metadata
   id="metadata41"><rdf:RDF><cc:Work
       rdf:about=""><dc:format>image/svg+xml</dc:format><dc:type
         rdf:resource="http://purl.org/dc/dcmitype/StillImage" /></cc:Work></rdf:RDF></metadata><defs
   id="defs39" /><sodipodi:namedview
   pagecolor="#ffffff"
   bordercolor="#666666"
   borderopacity="1"
   objecttolerance="10"
   gridtolerance="10"
   guidetolerance="10"
   inkscape:pageopacity="0"
   inkscape:pageshadow="2"
   inkscape:window-width="1440"
   inkscape:window-height="837"
   id="namedview37"
   showgrid="false"
   inkscape:zoom="0.26640021"
   inkscape:cx="-432.01032"
   inkscape:cy="-381.89602"
   inkscape:window-x="-8"
   inkscape:window-y="-8"
   inkscape:window-maximized="1"
   inkscape:current-layer="Capa_1"
   inkscape:snap-bbox="true"
   inkscape:snap-smooth-nodes="true"
   inkscape:snap-object-midpoints="true"
   inkscape:snap-center="true"
   inkscape:bbox-nodes="true"
   inkscape:snap-bbox-edge-midpoints="true"
   inkscape:snap-bbox-midpoints="true"
   inkscape:object-paths="true"
   inkscape:snap-intersection-paths="true"
   inkscape:object-nodes="true"
   inkscape:snap-global="false" />
<g
   id="g3"
   style="fill:#313b32;fill-opacity:1;color:#000000;fill-rule:nonzero;stroke-width:1.00000004;stroke-linecap:butt;stroke-linejoin:miter;stroke-miterlimit:4;stroke-opacity:1;stroke-dasharray:none;stroke-dashoffset:0;marker:none;visibility:visible;display:inline;overflow:visible;enable-background:accumulate">
	<path
   d="M306.037,0.037C136.997,0.037,0,137.034,0,306.074s136.997,305.963,306.037,305.963S612.074,475.04,612.074,306   S475.003,0.037,306.037,0.037z M306.037,583.258c-152.203,0-276.368-124.165-276.368-276.368S153.834,30.522,306.037,30.522   S582.405,154.687,582.405,306.89S458.24,583.258,306.037,583.258z M257.157,189.92h-48.064c-15.205,0-27.221,12.016-27.221,27.221   v179.424c0,15.205,12.016,27.221,27.221,27.221h48.064c15.205,0,27.221-12.016,27.221-27.221V217.141   C284.379,201.936,272.363,189.92,257.157,189.92z M254.71,393.376h-42.427V219.515h42.427V393.376z M402.165,189.92h-48.064   c-15.205,0-27.221,12.016-27.221,27.221v179.424c0,15.205,12.016,27.221,27.221,27.221h48.064   c15.205,0,27.221-12.016,27.221-27.221V217.141C429.387,201.936,417.371,189.92,402.165,189.92z M399.717,393.376h-42.427V219.515   h42.427V393.376z"
   id="path5"
   style="fill:#313b32;fill-opacity:1;color:#000000;fill-rule:nonzero;stroke-width:1.00000004;stroke-linecap:butt;stroke-linejoin:miter;stroke-miterlimit:4;stroke-opacity:1;stroke-dasharray:none;stroke-dashoffset:0;marker:none;visibility:visible;display:inline;overflow:visible;enable-background:accumulate" />
</g>
<g
   id="g7">
</g>
<g
   id="g9">
</g>
<g
   id="g11">
</g>
<g
   id="g13">
</g>
<g
   id="g15">
</g>
<g
   id="g17">
</g>
<g
   id="g19">
</g>
<g
   id="g21">
</g>
<g
   id="g23">
</g>
<g
   id="g25">
</g>
<g
   id="g27">
</g>
<g
   id="g29">
</g>
<g
   id="g31">
</g>
<g
   id="g33">
</g>
<g
   id="g35">
</g>
<path
   style="color:#000000;fill:#ffff00;fill-opacity:1;fill-rule:nonzero;stroke:none;stroke-width:1;marker:none;visibility:visible;display:inline;overflow:visible;enable-background:accumulate"
   d="m -1081.3613,423.64041 c -17.0127,0 -30.7057,13.51485 -30.7057,30.29173 l 0,197.41375 c 0,16.77688 13.693,30.29173 30.7057,30.29173 l 51.2683,0 c 17.0127,0 30.7057,-13.51485 30.7057,-30.29173 l 0,-197.41375 c 0,-16.77688 -13.693,-30.29173 -30.7057,-30.29173 l -51.2683,0 z m 2.7601,32.77578 46.8521,0 0,191.96263 -46.8521,0 0,-191.96263 z"
   id="rect3060"
   inkscape:connector-curvature="0" /><path
   inkscape:connector-curvature="0"
   style="color:#000000;fill:#313b32;fill-opacity:1;fill-rule:nonzero;stroke-width:1;stroke-linecap:butt;stroke-linejoin:miter;stroke-miterlimit:4;stroke-opacity:1;stroke-dasharray:none;stroke-dashoffset:0;marker:none;visibility:visible;display:inline;overflow:visible;enable-background:accumulate"
   d="m -567.83711,249.76775 c -169.03999,0 -306.03126,136.99127 -306.03126,306.03126 0,169.04 136.99127,305.96877 306.03126,305.96877 169.04,0 306.03127,-136.99127 306.03127,-306.03127 0,-169.03999 -137.06527,-305.96876 -306.03127,-305.96876 z m 0,60.84375 c 135.39735,0 245.15626,109.75892 245.15626,245.15626 0,135.39735 -109.75891,245.15626 -245.15626,245.15626 -135.39734,0 -245.15626,-109.75891 -245.15626,-245.15626 0,-135.39734 109.75892,-245.15626 245.15626,-245.15626 z m -96.9375,129.03126 c -15.205,0 -27.21875,12.045 -27.21875,27.25 l 0,179.40626 c 0,15.205 12.01375,27.21875 27.21875,27.21875 l 48.0625,0 c 15.205,0 27.21875,-12.01375 27.21875,-27.21875 l 0,-179.40626 c 0.001,-15.205 -12.01275,-27.25 -27.21875,-27.25 l -48.0625,0 z m 145,0 c -15.205,0 -27.21875,12.045 -27.21875,27.25 l 0,179.40626 c 0,15.205 12.01375,27.21875 27.21875,27.21875 l 48.06251,0 c 15.205,0 27.21875,-12.01375 27.21875,-27.21875 l 0,-179.40626 c 0.001,-15.205 -12.01275,-27.25 -27.21875,-27.25 l -48.06251,0 z m -141.8125,29.59375 42.4375,0 0,173.87501 -42.4375,0 0,-173.87501 z m 145,0 42.43751,0 0,173.87501 -42.43751,0 0,-173.87501 z"
   id="path5-1" /></svg>