<?xml version="1.0" encoding="UTF-8" standalone="no"?>
<!-- Generator: Adobe Illustrator 16.0.0, SVG Export Plug-In . SVG Version: 6.00 Build 0)  -->

<svg
   xmlns:dc="http://purl.org/dc/elements/1.1/"
   xmlns:cc="http://creativecommons.org/ns#"
   xmlns:rdf="http://www.w3.org/1999/02/22-rdf-syntax-ns#"
   xmlns:svg="http://www.w3.org/2000/svg"
   xmlns="http://www.w3.org/2000/svg"
   xmlns:sodipodi="http://sodipodi.sourceforge.net/DTD/sodipodi-0.dtd"
   xmlns:inkscape="http://www.inkscape.org/namespaces/inkscape"
   version="1.1"
   id="Capa_1"
   x="0px"
   y="0px"
   width="314.068px"
   height="314.068px"
   viewBox="0 0 314.068 314.068"
   style="enable-background:new 0 0 314.068 314.068;"
   xml:space="preserve"
   inkscape:version="0.48.4 r9939"
   sodipodi:docname="play.svg"><metadata
   id="metadata44"><rdf:RDF><cc:Work
       rdf:about=""><dc:format>image/svg+xml</dc:format><dc:type
         rdf:resource="http://purl.org/dc/dcmitype/StillImage" /></cc:Work></rdf:RDF></metadata><defs
   id="defs42">
	

		
	
			
		</defs><sodipodi:namedview
   pagecolor="#ffffff"
   bordercolor="#666666"
   borderopacity="1"
   objecttolerance="10"
   gridtolerance="10"
   guidetolerance="10"
   inkscape:pageopacity="0"
   inkscape:pageshadow="2"
   inkscape:window-width="605"
   inkscape:window-height="571"
   id="namedview40"
   showgrid="false"
   inkscape:zoom="0.77625599"
   inkscape:cx="130.6889"
   inkscape:cy="189.94443"
   inkscape:window-x="0"
   inkscape:window-y="0"
   inkscape:window-maximized="0"
   inkscape:current-layer="Capa_1" />
<path
   inkscape:connector-curvature="0"
   style="fill:#313b32;fill-opacity:1"
   id="path8"
   d="M 293.002,78.53 C 249.646,3.435 153.618,-22.296 78.529,21.068 3.434,64.418 -22.298,160.442 21.066,235.534 c 43.35,75.095 139.375,100.83 214.465,57.47 C 310.627,249.639 336.371,153.62 293.002,78.53 z M 219.834,265.801 C 159.767,300.493 82.94,279.907 48.258,219.828 13.568,159.761 34.161,82.935 94.23,48.26 154.301,13.57 231.124,34.154 265.808,94.231 c 34.685,60.076 14.098,136.886 -45.974,171.57 z m -6.279,-115.149 -82.214,-47.949 c -7.492,-4.374 -13.535,-0.877 -13.493,7.789 l 0.421,95.174 c 0.038,8.664 6.155,12.191 13.669,7.851 l 81.585,-47.103 c 7.506,-4.332 7.522,-11.388 0.032,-15.762 z" />
<g
   id="g10">
</g>
<g
   id="g12">
</g>
<g
   id="g14">
</g>
<g
   id="g16">
</g>
<g
   id="g18">
</g>
<g
   id="g20">
</g>
<g
   id="g22">
</g>
<g
   id="g24">
</g>
<g
   id="g26">
</g>
<g
   id="g28">
</g>
<g
   id="g30">
</g>
<g
   id="g32">
</g>
<g
   id="g34">
</g>
<g
   id="g36">
</g>
<g
   id="g38">
</g>
</svg>