<?xml version="1.0" encoding="UTF-8" standalone="no"?>
<!-- Created with Inkscape (http://www.inkscape.org/) -->

<svg
   xmlns:dc="http://purl.org/dc/elements/1.1/"
   xmlns:cc="http://creativecommons.org/ns#"
   xmlns:rdf="http://www.w3.org/1999/02/22-rdf-syntax-ns#"
   xmlns:svg="http://www.w3.org/2000/svg"
   xmlns="http://www.w3.org/2000/svg"
   xmlns:sodipodi="http://sodipodi.sourceforge.net/DTD/sodipodi-0.dtd"
   xmlns:inkscape="http://www.inkscape.org/namespaces/inkscape"
   width="64.501755"
   height="32.250374"
   id="svg2997"
   version="1.1"
   inkscape:version="0.48.4 r9939"
   sodipodi:docname="New document 1">
  <defs
     id="defs2999" />
  <sodipodi:namedview
     id="base"
     pagecolor="#ffffff"
     bordercolor="#666666"
     borderopacity="1.0"
     inkscape:pageopacity="0.0"
     inkscape:pageshadow="2"
     inkscape:zoom="1.2153398"
     inkscape:cx="-15.201337"
     inkscape:cy="195.63906"
     inkscape:current-layer="layer1"
     showgrid="true"
     inkscape:document-units="px"
     inkscape:grid-bbox="true"
     fit-margin-top="0"
     fit-margin-left="0"
     fit-margin-right="0"
     fit-margin-bottom="0"
     inkscape:window-width="1440"
     inkscape:window-height="837"
     inkscape:window-x="-8"
     inkscape:window-y="-8"
     inkscape:window-maximized="1" />
  <metadata
     id="metadata3002">
    <rdf:RDF>
      <cc:Work
         rdf:about="">
        <dc:format>image/svg+xml</dc:format>
        <dc:type
           rdf:resource="http://purl.org/dc/dcmitype/StillImage" />
        <dc:title></dc:title>
      </cc:Work>
    </rdf:RDF>
  </metadata>
  <g
     id="layer1"
     inkscape:label="Layer 1"
     inkscape:groupmode="layer"
     transform="translate(0.24647141,-6.5503974)">
    <path
       inkscape:connector-curvature="0"
       style="fill:#f5f5f5;fill-opacity:1"
       id="path8"
       d="M 29.841048,14.614229 C 25.388938,6.9029387 15.528108,4.2606987 7.8174375,8.7136287 0.10614755,13.165109 -2.5361925,23.025529 1.9167275,30.736509 c 4.45149,7.71129 14.3120105,10.35394 22.0227905,5.90143 7.71139,-4.45303 10.35496,-14.31294 5.90153,-22.02371 z m -7.51341,19.23031 c -6.16811,3.56242 -14.0572505,1.44851 -17.6186405,-4.72083 -3.56222,-6.16811 -1.44758,-14.05714 4.72073,-17.61782 6.1685105,-3.5622103 14.0572405,-1.4485 17.6188405,4.72063 3.5617,6.16903 1.44769,14.05642 -4.72093,17.61802 z m -0.64478,-11.82431 -8.44231,-4.92374 c -0.76933,-0.44916 -1.38987,-0.0901 -1.38556,0.79982 l 0.0432,9.77315 c 0.004,0.88968 0.63204,1.25185 1.40363,0.80619 l 8.37773,-4.83687 c 0.77077,-0.44484 0.77241,-1.1694 0.003,-1.61855 z" />
    <g
       transform="matrix(0.05269134,0,0,0.05269134,32.004287,6.5484478)"
       id="g3"
       style="color:#000000;fill:#f5f5f5;fill-opacity:1;fill-rule:nonzero;stroke-width:1;stroke-linecap:butt;stroke-linejoin:miter;stroke-miterlimit:4;stroke-opacity:1;stroke-dasharray:none;stroke-dashoffset:0;marker:none;visibility:visible;display:inline;overflow:visible;enable-background:accumulate">
      <path
         inkscape:connector-curvature="0"
         d="M 306.037,0.037 C 136.997,0.037 0,137.034 0,306.074 0,475.114 136.997,612.037 306.037,612.037 475.077,612.037 612.074,475.04 612.074,306 612.074,136.96 475.003,0.037 306.037,0.037 z m 0,583.221 c -152.203,0 -276.368,-124.165 -276.368,-276.368 0,-152.203 124.165,-276.368 276.368,-276.368 152.203,0 276.368,124.165 276.368,276.368 0,152.203 -124.165,276.368 -276.368,276.368 z M 257.157,189.92 h -48.064 c -15.205,0 -27.221,12.016 -27.221,27.221 v 179.424 c 0,15.205 12.016,27.221 27.221,27.221 h 48.064 c 15.205,0 27.221,-12.016 27.221,-27.221 V 217.141 C 284.379,201.936 272.363,189.92 257.157,189.92 z M 254.71,393.376 H 212.283 V 219.515 H 254.71 V 393.376 z M 402.165,189.92 h -48.064 c -15.205,0 -27.221,12.016 -27.221,27.221 v 179.424 c 0,15.205 12.016,27.221 27.221,27.221 h 48.064 c 15.205,0 27.221,-12.016 27.221,-27.221 V 217.141 c 10e-4,-15.205 -12.015,-27.221 -27.221,-27.221 z m -2.448,203.456 H 357.29 V 219.515 h 42.427 v 173.861 z"
         id="path5"
         style="color:#000000;fill:#f5f5f5;fill-opacity:1;fill-rule:nonzero;stroke-width:1;stroke-linecap:butt;stroke-linejoin:miter;stroke-miterlimit:4;stroke-opacity:1;stroke-dasharray:none;stroke-dashoffset:0;marker:none;visibility:visible;display:inline;overflow:visible;enable-background:accumulate" />
    </g>
  </g>
</svg>
